<svg width="832" height="463" viewBox="0 0 832 463" fill="none" xmlns="http://www.w3.org/2000/svg">
<g clip-path="url(#clip0)">
<path opacity="0.1" d="M832 302.593C832.045 326.648 825.474 350.253 813.004 370.829C813.004 395.992 801.266 418.801 782.226 435.424C777.459 439.578 772.328 443.295 766.895 446.53C766.676 446.668 766.451 446.799 766.226 446.93C765.818 447.169 765.411 447.409 764.996 447.656L764.611 447.882C762.873 448.863 761.098 449.808 759.287 450.695C742.6 458.895 724.239 463.125 705.644 463.051H157.942C153.578 463.051 149.253 462.876 144.967 462.528C129.736 461.329 114.768 457.865 100.56 452.25C97.7867 451.155 95.0667 449.977 92.4 448.718C91.1297 448.121 89.8716 447.509 88.6255 446.879C87.8473 446.486 87.0691 446.079 86.2982 445.672C81.6206 443.186 77.0895 440.434 72.7273 437.43C68.7406 434.703 64.9047 431.762 61.2364 428.62C36.4873 407.396 21.1782 378.025 21.1782 345.615C7.30592 324.266 -0.0524592 299.345 3.47755e-05 273.89C3.47755e-05 201.83 57.6291 143.414 128.727 143.414C130.909 143.414 133.091 143.479 135.273 143.595C135.585 143.595 135.891 143.595 136.204 143.639C148.189 123.222 164.211 104.462 183.476 87.9482C236.015 42.9565 312.8 14.595 398.335 14.595C470.204 14.595 535.898 34.6196 586.218 67.7056C605.286 56.9329 626.823 51.2857 648.727 51.3152C719.811 51.3152 777.455 109.732 777.455 181.791C777.444 186.351 777.201 190.906 776.727 195.441C793.862 207.564 807.828 223.627 817.448 242.275C827.068 260.924 832.059 281.612 832 302.593Z" fill="#0EC4A9"/>
<path opacity="0.1" d="M662.32 199.134V191.335C668.424 188.858 673.476 184.338 676.612 178.548C679.748 172.758 680.772 166.058 679.51 159.597C678.247 153.135 674.777 147.313 669.692 143.127C664.607 138.942 658.224 136.653 651.636 136.653C645.049 136.653 638.666 138.942 633.581 143.127C628.496 147.313 625.025 153.135 623.763 159.597C622.5 166.058 623.525 172.758 626.661 178.548C629.797 184.338 634.849 188.858 640.953 191.335V199.134C633.837 201.11 627.408 205.017 622.378 210.422C617.051 202.433 609.029 196.624 599.775 194.053V186.247C605.878 183.77 610.931 179.25 614.067 173.46C617.203 167.67 618.227 160.97 616.964 154.509C615.702 148.047 612.231 142.225 607.146 138.039C602.061 133.854 595.678 131.565 589.091 131.565C582.503 131.565 576.121 133.854 571.036 138.039C565.951 142.225 562.48 148.047 561.217 154.509C559.955 160.97 560.979 167.67 564.115 173.46C567.251 179.25 572.304 183.77 578.407 186.247V194.046C572.08 195.801 566.283 199.086 561.527 203.611C556.22 196.492 548.696 191.337 540.138 188.958V181.159C546.242 178.682 551.294 174.162 554.43 168.372C557.566 162.582 558.591 155.883 557.328 149.421C556.066 142.959 552.595 137.137 547.51 132.951C542.425 128.766 536.042 126.477 529.455 126.477C522.867 126.477 516.484 128.766 511.399 132.951C506.314 137.137 502.843 142.959 501.581 149.421C500.318 155.883 501.343 162.582 504.479 168.372C507.615 174.162 512.667 178.682 518.771 181.159V188.958C511.491 190.985 504.935 195.033 499.862 200.631C497.6 194.836 494.02 189.648 489.403 185.477C484.787 181.306 479.261 178.267 473.265 176.601V168.802C479.369 166.326 484.422 161.805 487.557 156.015C490.693 150.226 491.718 143.526 490.455 137.065C489.193 130.603 485.722 124.781 480.637 120.595C475.552 116.409 469.169 114.121 462.582 114.121C455.994 114.121 449.611 116.409 444.527 120.595C439.442 124.781 435.971 130.603 434.708 137.065C433.446 143.526 434.47 150.226 437.606 156.015C440.742 161.805 445.794 166.326 451.898 168.802V176.601C444.105 178.77 437.152 183.249 431.959 189.448C426.765 195.647 423.574 203.274 422.807 211.323C419.137 208.776 415.063 206.867 410.756 205.675V197.876C416.86 195.399 421.912 190.879 425.048 185.089C428.184 179.299 429.209 172.6 427.946 166.138C426.684 159.677 423.213 153.854 418.128 149.669C413.043 145.483 406.66 143.195 400.073 143.195C393.485 143.195 387.102 145.483 382.017 149.669C376.932 153.854 373.462 159.677 372.199 166.138C370.937 172.6 371.961 179.299 375.097 185.089C378.233 190.879 383.285 195.399 389.389 197.876V205.675C383.957 207.187 378.904 209.826 374.561 213.421C370.218 217.015 366.681 221.484 364.182 226.536C360.812 224.372 357.134 222.73 353.273 221.666V213.867C359.376 211.39 364.429 206.87 367.565 201.08C370.701 195.29 371.725 188.591 370.463 182.129C369.2 175.667 365.729 169.845 360.644 165.659C355.559 161.474 349.177 159.185 342.589 159.185C336.001 159.185 329.619 161.474 324.534 165.659C319.449 169.845 315.978 175.667 314.715 182.129C313.453 188.591 314.477 195.29 317.613 201.08C320.749 206.87 325.802 211.39 331.905 213.867V221.666C328.262 222.671 324.781 224.193 321.571 226.187C319.054 221.218 315.529 216.827 311.221 213.296C306.912 209.764 301.914 207.169 296.545 205.675V197.876C302.649 195.399 307.702 190.879 310.837 185.089C313.973 179.299 314.998 172.6 313.735 166.138C312.473 159.677 309.002 153.854 303.917 149.669C298.832 145.483 292.449 143.195 285.862 143.195C279.274 143.195 272.891 145.483 267.806 149.669C262.722 153.854 259.251 159.677 257.988 166.138C256.726 172.6 257.75 179.299 260.886 185.089C264.022 190.879 269.074 195.399 275.178 197.876V205.675C269.4 207.281 264.057 210.163 259.542 214.108C255.027 218.053 251.455 222.961 249.091 228.469C245.024 225.349 240.394 223.039 235.455 221.666V213.867C241.558 211.39 246.611 206.87 249.747 201.08C252.883 195.29 253.907 188.591 252.644 182.129C251.382 175.667 247.911 169.845 242.826 165.659C237.741 161.474 231.358 159.185 224.771 159.185C218.183 159.185 211.801 161.474 206.716 165.659C201.631 169.845 198.16 175.667 196.897 182.129C195.635 188.591 196.659 195.29 199.795 201.08C202.931 206.87 207.984 211.39 214.087 213.867V221.666C205.659 224.001 198.228 229.032 192.933 235.989C187.638 242.947 184.771 251.447 184.771 260.189V440.446H264.727V424.455H302.545V440.446H382.545V424.455H440V395.382H489.455V407.738H549.091V412.826H611.636V417.914H691.636V237.656C691.636 228.915 688.769 220.415 683.474 213.457C678.179 206.5 670.749 201.468 662.32 199.134Z" fill="#0EC4A9"/>
<path d="M356.931 122.837H423.425C439.689 122.836 455.793 126.036 470.819 132.256C485.845 138.475 499.498 147.592 510.998 159.085C522.499 170.578 531.621 184.222 537.845 199.239C544.069 214.255 547.273 230.35 547.273 246.604V414.301H233.091V246.604C233.091 213.779 246.138 182.298 269.363 159.087C292.587 135.876 324.086 122.837 356.931 122.837Z" fill="#2F2E41"/>
<path opacity="0.2" d="M364.204 129.582H416.153C432.416 129.581 448.521 132.782 463.546 139.001C478.572 145.22 492.225 154.337 503.726 165.83C515.226 177.323 524.349 190.967 530.573 205.984C536.797 221 540 237.095 540 253.349V407.549H240.364V253.349C240.364 220.524 253.411 189.043 276.636 165.832C299.86 142.622 331.359 129.582 364.204 129.582Z" fill="black"/>
<path d="M759.273 437.989V450.68C742.585 458.881 724.225 463.11 705.629 463.036H157.942C153.578 463.036 149.253 462.862 144.967 462.513C129.736 461.314 114.768 457.85 100.56 452.235C97.7867 451.14 95.0667 449.963 92.4 448.703C91.1297 448.107 89.8715 447.494 88.6255 446.864C87.8473 446.472 87.0691 446.065 86.2982 445.657C81.621 443.176 77.0899 440.429 72.7273 437.43V402.963C72.7273 397.392 74.9417 392.049 78.8834 388.109C82.8251 384.17 88.1711 381.957 93.7455 381.957H698.276C703.362 381.966 708.271 383.818 712.095 387.168L752.095 422.202C754.348 424.17 756.154 426.597 757.392 429.32C758.63 432.043 759.271 434.999 759.273 437.989Z" fill="#2F2E41"/>
<path d="M351.033 164.129C335.173 165.175 319.375 166.871 303.636 169.217C299.164 169.885 294.625 170.627 290.545 172.604C287.375 174.263 284.452 176.357 281.862 178.826C270.179 189.286 260.772 202.034 254.225 216.28C250.175 225.111 247.265 234.451 243.447 243.355C229.855 275.154 205.2 301.161 190.851 332.626C187.745 339.436 185.127 346.545 184.087 353.951C183.011 361.612 184.233 370.553 190.531 375.03C193.44 377.087 196.975 377.937 200.436 378.664C244.016 388.309 288.102 395.504 332.487 400.215C327.68 395.578 326.073 388.389 326.705 381.746C327.338 375.103 329.949 368.823 332.524 362.666C307.404 357.128 282.347 351.313 257.353 345.222C253.622 344.314 249.142 342.605 248.684 338.797C248.451 336.856 249.411 334.988 250.356 333.28C261.016 313.989 273.798 295.948 288.465 279.494C288.465 299.889 287.455 322.923 287.455 343.325H523.164C520.329 331.684 518.663 319.79 518.189 307.819C517.091 268.744 530.255 229.966 526.836 190.971C526.516 187.373 526.022 183.666 524.138 180.585C520.887 175.264 514.4 173.062 508.436 171.245C485.571 164.296 462.225 157.267 438.327 157.812C431.222 157.98 424.145 158.808 417.084 159.644C395.564 162.181 372.655 162.697 351.033 164.129Z" fill="#0EC4A9"/>
<path d="M240.64 398.543L257.804 453.442C257.913 453.79 258.131 454.094 258.426 454.309C258.72 454.525 259.075 454.641 259.44 454.641H333.091L315.636 390.679L242.138 396.327C241.882 396.348 241.634 396.426 241.412 396.556C241.191 396.685 241.001 396.863 240.857 397.076C240.713 397.289 240.619 397.531 240.582 397.785C240.544 398.039 240.564 398.298 240.64 398.543Z" fill="#656478"/>
<path d="M366.545 187.737C363.345 189.576 359.614 190.237 355.978 190.869L332.509 194.94C327.942 195.732 323.135 196.633 319.615 199.65C312.415 205.806 313.971 217.138 316.153 226.354L320.516 244.845C323.804 258.742 327.164 272.807 333.905 285.396C345.68 307.368 367.28 323.191 391.033 330.816C399.52 333.542 408.487 335.315 417.345 334.341C434.698 332.437 449.542 320.073 458.691 305.209C467.84 290.345 472.196 273.105 476.189 256.111C480.022 239.844 483.665 223.345 483.418 206.627C483.345 201.423 482.822 195.986 480.044 191.574C473.956 181.886 460.16 181.159 448.851 182.947C447.091 183.23 445.265 183.536 443.571 183.005C438.48 181.42 438.364 174.435 436.182 169.587C432.058 160.444 419.825 158.823 409.825 159.651C399.825 160.48 384.255 161.548 375.542 167.211C367.164 172.626 376.371 182.075 366.545 187.737Z" fill="#FBBEBE"/>
<path opacity="0.1" d="M366.545 187.737C363.345 189.576 359.614 190.237 355.978 190.869L332.509 194.94C327.942 195.732 323.135 196.633 319.615 199.65C312.415 205.806 313.971 217.138 316.153 226.354L320.516 244.845C323.804 258.742 327.164 272.807 333.905 285.396C345.68 307.368 367.28 323.191 391.033 330.816C399.52 333.542 408.487 335.315 417.345 334.341C434.698 332.437 449.542 320.073 458.691 305.209C467.84 290.345 472.196 273.105 476.189 256.111C480.022 239.844 483.665 223.345 483.418 206.627C483.345 201.423 482.822 195.986 480.044 191.574C473.956 181.886 460.16 181.159 448.851 182.947C447.091 183.23 445.265 183.536 443.571 183.005C438.48 181.42 438.364 174.435 436.182 169.587C432.058 160.444 419.825 158.823 409.825 159.651C399.825 160.48 384.255 161.548 375.542 167.211C367.164 172.626 376.371 182.075 366.545 187.737Z" fill="black"/>
<path d="M347.12 208.568C350.669 216.011 353.331 223.904 357.622 230.948C361.033 236.544 365.404 241.48 369.753 246.386C381.018 259.12 392.429 271.956 406.371 281.652C412.144 252.009 426.092 224.569 446.64 202.426C452.647 195.979 460.167 189.626 468.982 189.866C474.451 190.019 479.498 192.73 484.051 195.747C489.142 199.112 493.956 203.015 497.615 207.863C503.396 215.582 505.891 225.358 506.342 234.989C506.793 244.62 505.295 254.228 503.811 263.75L496.175 312.965C495.731 315.814 495.113 318.961 492.785 320.669C491.464 321.506 489.974 322.042 488.422 322.239C460.662 327.64 432.051 324.136 403.767 323.86C372.495 323.562 340.356 327.124 310.735 317.18C309.185 316.657 307.578 316.054 306.531 314.811C305.843 313.873 305.349 312.809 305.076 311.678C298.175 289.35 303.709 265.356 307.804 242.352C311.046 224.121 313.354 205.737 314.72 187.272C314.844 185.607 333.142 189.285 335.185 190.462C340.749 193.755 344.444 202.957 347.12 208.568Z" fill="#0EC4A9"/>
<g opacity="0.2">
<path opacity="0.2" d="M121.36 390.163C121.36 390.497 121.324 390.824 121.287 391.144C118.514 390.049 115.794 388.872 113.127 387.612C111.703 387.424 110.378 386.779 109.353 385.773C108.574 385.38 107.796 384.973 107.025 384.566C107.2 384.201 107.397 383.846 107.614 383.505C109.113 381.136 111.389 379.653 113.898 379.733C116.407 379.813 118.582 381.434 119.927 383.883C120.956 385.811 121.451 387.979 121.36 390.163Z" fill="#3F3D56"/>
<path opacity="0.2" d="M121.753 377.719C121.703 379.899 121.073 382.027 119.927 383.883C118.429 386.245 116.153 387.728 113.644 387.648L113.127 387.612C111.703 387.424 110.378 386.779 109.353 385.773C108.658 385.113 108.071 384.348 107.615 383.505C106.611 381.57 106.12 379.41 106.189 377.232C106.258 375.054 106.884 372.929 108.007 371.061C109.505 368.692 111.782 367.209 114.291 367.289C116.8 367.369 118.975 368.99 120.32 371.439C121.349 373.368 121.844 375.536 121.753 377.719Z" fill="#3F3D56"/>
<path opacity="0.2" d="M122.145 365.295C122.323 359.673 118.985 355.007 114.689 354.871C110.394 354.735 106.767 359.182 106.589 364.803C106.412 370.424 109.75 375.091 114.046 375.227C118.341 375.363 121.968 370.916 122.145 365.295Z" fill="#3F3D56"/>
<path opacity="0.2" d="M122.542 352.851C122.72 347.23 119.382 342.563 115.086 342.427C110.79 342.292 107.164 346.738 106.986 352.36C106.808 357.981 110.147 362.648 114.442 362.783C118.738 362.919 122.364 358.472 122.542 352.851Z" fill="#3F3D56"/>
<path opacity="0.2" d="M122.931 340.407C123.109 334.786 119.771 330.119 115.475 329.983C111.18 329.848 107.553 334.295 107.376 339.916C107.198 345.537 110.536 350.204 114.832 350.339C119.127 350.475 122.754 346.028 122.931 340.407Z" fill="#3F3D56"/>
<path opacity="0.2" d="M88.7274 254.069C87.7032 252.683 86.7796 251.225 85.9638 249.707L106.516 246.996L84.3638 246.473C82.3895 241.793 81.3912 236.759 81.4299 231.68C81.4687 226.601 82.5437 221.584 84.5892 216.934L113.767 233.244L87.0401 212.282C89.7364 207.924 93.3028 204.168 97.5167 201.249C101.731 198.33 106.501 196.311 111.531 195.318C116.561 194.324 121.742 194.378 126.75 195.476C131.758 196.573 136.486 198.691 140.638 201.697C144.79 204.702 148.278 208.532 150.883 212.945C153.488 217.358 155.155 222.261 155.779 227.347C156.403 232.433 155.971 237.593 154.51 242.504C153.049 247.416 150.59 251.974 147.287 255.893C148.879 258.05 150.232 260.372 151.324 262.82L124.364 275.787L152.967 267.188C154.769 273.126 155.061 279.419 153.817 285.498C152.572 291.577 149.831 297.25 145.84 302.004C149.994 307.636 152.478 314.323 153.008 321.299C153.538 328.276 152.092 335.261 148.836 341.455C145.58 347.649 140.645 352.802 134.596 356.325C128.547 359.847 121.628 361.597 114.631 361.374C107.633 361.151 100.84 358.963 95.0283 355.063C89.2163 351.162 84.6204 345.705 81.7661 339.316C78.9119 332.927 77.9146 325.864 78.8885 318.935C79.8623 312.007 82.7679 305.492 87.2729 300.136C82.3114 293.406 79.7575 285.205 80.0213 276.851C80.2851 268.496 83.3513 260.472 88.7274 254.069Z" fill="#0EC4A9"/>
<path opacity="0.1" d="M154.545 279.195C154.289 287.557 151.214 295.587 145.818 301.982C149.978 307.612 152.468 314.298 153.003 321.276C153.538 328.254 152.096 335.241 148.843 341.439C145.59 347.636 140.657 352.793 134.609 356.319C128.56 359.845 121.64 361.598 114.641 361.378C107.642 361.157 100.847 358.972 95.0325 355.071C89.2184 351.171 84.6204 345.714 81.7647 339.324C78.9091 332.934 77.9112 325.869 78.8853 318.939C79.8594 312.009 82.7661 305.492 87.2727 300.136C82.4509 293.638 154.676 275.016 154.545 279.195Z" fill="black"/>
</g>
<path opacity="0.1" d="M49.4691 118.338C58.157 118.338 65.2 111.299 65.2 102.616C65.2 93.9331 58.157 86.8943 49.4691 86.8943C40.7811 86.8943 33.7382 93.9331 33.7382 102.616C33.7382 111.299 40.7811 118.338 49.4691 118.338Z" fill="#0EC4A9"/>
<path opacity="0.1" d="M115.033 31.4433C123.721 31.4433 130.764 24.4045 130.764 15.7216C130.764 7.03882 123.721 0 115.033 0C106.345 0 99.3018 7.03882 99.3018 15.7216C99.3018 24.4045 106.345 31.4433 115.033 31.4433Z" fill="#0EC4A9"/>
<path opacity="0.1" d="M109.702 101.765C124.262 101.765 136.065 89.969 136.065 75.4174C136.065 60.8657 124.262 49.0693 109.702 49.0693C95.1415 49.0693 83.3381 60.8657 83.3381 75.4174C83.3381 89.969 95.1415 101.765 109.702 101.765Z" fill="#0EC4A9"/>
<path d="M394.909 195.885C428.649 195.885 456 168.549 456 134.83C456 101.11 428.649 73.7747 394.909 73.7747C361.169 73.7747 333.818 101.11 333.818 134.83C333.818 168.549 361.169 195.885 394.909 195.885Z" fill="#FBBEBE"/>
<path d="M370.095 15.0239C353.796 17.0881 336.204 19.8138 324.684 31.516C318.24 38.0576 314.465 46.7797 311.36 55.4146C306.545 68.8613 302.96 83.0347 304.087 97.3027C305.091 110.066 309.818 123.12 305.993 135.346C304.233 140.972 300.778 145.885 298.095 151.126C293.12 160.858 290.778 171.768 289.92 182.663C289.324 190.157 289.44 197.869 291.905 204.97C294.531 212.529 299.651 218.962 302.895 226.274C307.695 237.075 308.175 249.228 308.545 261.039C308.916 272.85 309.229 284.581 309.505 296.349C309.68 303.748 309.695 311.671 305.6 317.842C320.72 311.787 336.051 305.609 348.989 295.724C361.927 285.839 372.4 271.585 374.073 255.391C375.425 242.265 370.989 229.327 367.164 216.694C357.709 185.44 351.6 152.121 358.48 120.206C360.96 108.714 366.989 95.8854 378.56 93.7702C385.622 92.4837 392.669 95.7036 399.033 99.0326C414.073 106.897 429.578 117.073 435.178 133.085C440.269 147.564 435.985 163.693 429.36 177.517C422.735 191.342 413.716 204.054 408.567 218.504C400.662 240.673 402.887 266.628 416.022 286.159C429.156 305.689 453.425 317.704 476.764 314.549C474.938 306.67 469.215 300.303 466.145 292.817C460.567 279.217 464.327 263.576 470.327 250.158C476.327 236.741 484.516 224.232 488.269 209.985C490.916 199.955 491.236 189.474 491.222 179.102C491.222 162.777 490.415 146.445 488.844 130.192C487.273 113.94 484.873 97.4844 479.695 81.85C475.535 69.3119 469.476 57.1881 460.415 47.572C450.771 37.3307 438.218 30.3894 425.891 23.5861C418.516 19.5303 410.982 15.4236 402.705 13.9045C396.16 12.7053 389.28 10.9972 382.604 10.8881C378.065 10.8227 373.295 11.804 370.095 15.0239Z" fill="#434175"/>
<path d="M485.077 93.8276L445.773 86.2065C444.63 85.9848 443.523 86.7315 443.301 87.8743L424.47 184.873C424.249 186.016 424.996 187.122 426.139 187.343L465.443 194.965C466.586 195.186 467.693 194.44 467.915 193.297L486.745 96.2983C486.967 95.1555 486.22 94.0493 485.077 93.8276Z" fill="#656478"/>
<path d="M488.047 94.4038L448.744 86.7827C447.6 86.5609 446.493 87.3076 446.272 88.4505L427.441 185.449C427.219 186.592 427.966 187.698 429.11 187.92L468.413 195.541C469.557 195.762 470.664 195.016 470.885 193.873L489.716 96.8745C489.938 95.7317 489.191 94.6255 488.047 94.4038Z" fill="#3F3D56"/>
<path d="M467.059 113.064C467.828 109.103 467.125 105.635 465.488 105.318C463.852 105.001 461.902 107.954 461.133 111.915C460.364 115.875 461.068 119.343 462.704 119.66C464.34 119.978 466.29 117.024 467.059 113.064Z" fill="#0EC4A9"/>
<path d="M476.364 146.096C474.444 142.701 472.393 139.191 469.156 137.017C467.296 135.877 465.297 134.981 463.207 134.35C456.16 131.886 448.996 129.4 441.542 129.008C440.327 128.949 438.938 129.008 438.146 129.938C436.516 131.85 439.098 134.452 441.331 135.607L459.091 144.802L442.72 143.072C440.342 142.818 436.953 143.465 437.127 145.849C437.244 147.411 438.96 148.262 440.444 148.756C450.953 152.39 463.098 155.239 468.851 164.747C461.186 164.02 453.353 163.293 445.84 164.979C443.782 165.444 441.651 166.164 440.306 167.785C438.96 169.406 438.807 172.146 440.502 173.432C441.549 174.21 442.96 174.232 444.269 174.159C449.6 173.905 455.069 172.844 460.189 174.363C465.309 175.882 469.855 181.246 468.087 186.276C472.626 186.683 477.993 186.276 482.189 184.321C486.815 182.14 486.706 178.041 486.422 173.098C485.818 163.416 481.011 154.382 476.364 146.096Z" fill="#FBBEBE"/>
<path opacity="0.1" d="M471.774 304.541C467.705 275.938 462.121 247.57 455.047 219.558C451.411 205.021 447.28 190.237 448.32 175.279C463.345 177.19 476.807 178.608 490.654 172.473C490.88 180.33 496.582 187.01 498.654 194.605C500.044 199.693 499.52 205.079 500.065 210.32C500.611 215.56 502.247 220.641 503.651 225.736C510.615 250.985 512.257 277.404 508.473 303.319C495.622 304.846 484.596 306.525 471.774 304.541Z" fill="black"/>
<path d="M469.593 304.541C465.523 275.938 459.939 247.57 452.866 219.558C449.229 205.021 445.098 190.237 446.138 175.279C461.164 177.19 474.626 178.608 488.473 172.473C488.698 180.33 494.4 187.01 496.473 194.605C497.862 199.693 497.338 205.079 497.884 210.32C498.429 215.56 500.066 220.641 501.469 225.736C508.434 250.985 510.076 277.404 506.291 303.319C493.44 304.846 482.415 306.525 469.593 304.541Z" fill="#0EC4A9"/>
<path d="M259.367 446.115L266.487 269.587C266.601 266.781 267.803 264.129 269.839 262.194C271.876 260.259 274.587 259.193 277.396 259.222L558.502 261.911C559.991 261.927 561.462 262.249 562.82 262.86C564.179 263.47 565.397 264.354 566.397 265.457C567.398 266.56 568.159 267.858 568.634 269.269C569.109 270.68 569.287 272.174 569.156 273.657L554.305 442.772C554.072 445.431 552.862 447.91 550.908 449.73C548.953 451.55 546.394 452.582 543.724 452.628L270.356 457.352C268.885 457.377 267.423 457.102 266.062 456.543C264.701 455.983 263.468 455.152 262.439 454.1C261.41 453.048 260.607 451.798 260.079 450.425C259.551 449.052 259.309 447.585 259.367 446.115Z" fill="#3F3D56"/>
<path d="M416.364 353.973C423.192 353.973 428.727 347.465 428.727 339.436C428.727 331.408 423.192 324.9 416.364 324.9C409.535 324.9 404 331.408 404 339.436C404 347.465 409.535 353.973 416.364 353.973Z" fill="#0EC4A9"/>
<path d="M680.727 329.45L680.146 334.436L670.691 415.014C646.044 432.189 626.873 415.682 626.706 415.014L614.793 334.058L614.116 329.45H680.727Z" fill="#3F3D56"/>
<path opacity="0.1" d="M680.727 329.45L680.146 334.436C652.378 350.572 622.756 338.012 614.793 334.058L614.116 329.45H680.727Z" fill="black"/>
<path d="M612.727 325.074V332.342C612.727 332.342 649.455 353.683 682.546 332.342V325.074H612.727Z" fill="#0EC4A9"/>
<path d="M616.996 315.472C616.996 315.472 615.927 320.379 612.727 320.807V326.993H682.546V321.447C682.546 321.447 678.276 320.379 678.909 315.472H616.996Z" fill="#0EC4A9"/>
<path d="M647.426 325.074C664.818 325.074 678.917 321.013 678.917 316.003C678.917 310.993 664.818 306.932 647.426 306.932C630.034 306.932 615.935 310.993 615.935 316.003C615.935 321.013 630.034 325.074 647.426 325.074Z" fill="#0EC4A9"/>
<path opacity="0.1" d="M647.426 325.074C664.818 325.074 678.917 321.013 678.917 316.003C678.917 310.993 664.818 306.932 647.426 306.932C630.034 306.932 615.935 310.993 615.935 316.003C615.935 321.013 630.034 325.074 647.426 325.074Z" fill="black"/>
<path opacity="0.1" d="M675.069 315.472C675.069 319.107 663.127 322.087 648.385 322.087H647.6C637.702 322.014 629.149 320.633 624.785 318.569C622.815 317.638 621.695 316.584 621.695 315.472C621.695 313.626 624.749 311.954 629.695 310.755C635.839 309.412 642.118 308.776 648.407 308.858C663.127 308.858 675.069 311.816 675.069 315.472Z" fill="black"/>
<path opacity="0.1" d="M647.6 322.087C637.702 322.014 629.149 320.633 624.786 318.569L629.673 310.726L647.6 322.087Z" fill="black"/>
<path opacity="0.1" d="M619.709 315.981C619.331 315.901 618.829 316.032 618.756 316.41C618.747 316.602 618.798 316.793 618.902 316.955C619.735 318.273 620.947 319.309 622.378 319.928C622.622 320.065 622.892 320.152 623.171 320.182C623.316 320.2 623.463 320.173 623.593 320.106C623.723 320.038 623.829 319.933 623.898 319.804C623.938 319.695 623.954 319.577 623.946 319.461C623.937 319.344 623.903 319.231 623.847 319.128C623.625 318.735 623.317 318.397 622.945 318.14C621.971 317.377 620.974 316.192 619.709 315.981Z" fill="black"/>
<path d="M648.487 393.674C658.862 393.674 667.273 385.268 667.273 374.899C667.273 364.53 658.862 356.125 648.487 356.125C638.112 356.125 629.702 364.53 629.702 374.899C629.702 385.268 638.112 393.674 648.487 393.674Z" fill="#0EC4A9"/>
<path d="M136.967 374.943H145.775C150.597 374.943 155.221 376.857 158.631 380.265C162.041 383.673 163.956 388.295 163.956 393.114V420.116H118.786V393.114C118.786 388.295 120.701 383.673 124.111 380.265C127.521 376.857 132.145 374.943 136.967 374.943Z" fill="#3F3D56"/>
<path opacity="0.1" d="M136.967 374.943H145.775C150.597 374.943 155.221 376.857 158.631 380.265C162.041 383.673 163.956 388.295 163.956 393.114V420.116H118.786V393.114C118.786 388.295 120.701 383.673 124.111 380.265C127.521 376.857 132.145 374.943 136.967 374.943Z" fill="black"/>
<path d="M139.564 384.879C141.56 384.879 143.178 383.261 143.178 381.266C143.178 379.271 141.56 377.654 139.564 377.654C137.567 377.654 135.949 379.271 135.949 381.266C135.949 383.261 137.567 384.879 139.564 384.879Z" fill="#3F3D56"/>
<path d="M139.564 380.365C141.56 380.365 143.178 378.748 143.178 376.753C143.178 374.758 141.56 373.14 139.564 373.14C137.567 373.14 135.949 374.758 135.949 376.753C135.949 378.748 137.567 380.365 139.564 380.365Z" fill="#3F3D56"/>
<path d="M139.564 375.844C141.56 375.844 143.178 374.227 143.178 372.232C143.178 370.237 141.56 368.619 139.564 368.619C137.567 368.619 135.949 370.237 135.949 372.232C135.949 374.227 137.567 375.844 139.564 375.844Z" fill="#3F3D56"/>
<path d="M139.564 371.33C141.56 371.33 143.178 369.713 143.178 367.718C143.178 365.723 141.56 364.106 139.564 364.106C137.567 364.106 135.949 365.723 135.949 367.718C135.949 369.713 137.567 371.33 139.564 371.33Z" fill="#3F3D56"/>
<path d="M139.564 366.817C141.56 366.817 143.178 365.199 143.178 363.204C143.178 361.209 141.56 359.592 139.564 359.592C137.567 359.592 135.949 361.209 135.949 363.204C135.949 365.199 137.567 366.817 139.564 366.817Z" fill="#3F3D56"/>
<path d="M139.564 362.303C141.56 362.303 143.178 360.686 143.178 358.691C143.178 356.695 141.56 355.078 139.564 355.078C137.567 355.078 135.949 356.695 135.949 358.691C135.949 360.686 137.567 362.303 139.564 362.303Z" fill="#3F3D56"/>
<path d="M139.564 357.789C141.56 357.789 143.178 356.172 143.178 354.177C143.178 352.182 141.56 350.564 139.564 350.564C137.567 350.564 135.949 352.182 135.949 354.177C135.949 356.172 137.567 357.789 139.564 357.789Z" fill="#3F3D56"/>
<path d="M144.989 359.592C146.985 359.592 148.604 357.974 148.604 355.979C148.604 353.984 146.985 352.367 144.989 352.367C142.993 352.367 141.375 353.984 141.375 355.979C141.375 357.974 142.993 359.592 144.989 359.592Z" fill="#3F3D56"/>
<path d="M148.604 357.789C150.6 357.789 152.218 356.172 152.218 354.177C152.218 352.182 150.6 350.564 148.604 350.564C146.607 350.564 144.989 352.182 144.989 354.177C144.989 356.172 146.607 357.789 148.604 357.789Z" fill="#3F3D56"/>
<path d="M152.218 355.979C154.214 355.979 155.833 354.362 155.833 352.367C155.833 350.372 154.214 348.755 152.218 348.755C150.222 348.755 148.604 350.372 148.604 352.367C148.604 354.362 150.222 355.979 152.218 355.979Z" fill="#3F3D56"/>
<path d="M139.564 353.276C141.56 353.276 143.178 351.658 143.178 349.663C143.178 347.668 141.56 346.051 139.564 346.051C137.567 346.051 135.949 347.668 135.949 349.663C135.949 351.658 137.567 353.276 139.564 353.276Z" fill="#3F3D56"/>
<path d="M139.564 348.762C141.56 348.762 143.178 347.144 143.178 345.149C143.178 343.154 141.56 341.537 139.564 341.537C137.567 341.537 135.949 343.154 135.949 345.149C135.949 347.144 137.567 348.762 139.564 348.762Z" fill="#3F3D56"/>
<path d="M139.564 344.241C141.56 344.241 143.178 342.624 143.178 340.628C143.178 338.633 141.56 337.016 139.564 337.016C137.567 337.016 135.949 338.633 135.949 340.628C135.949 342.624 137.567 344.241 139.564 344.241Z" fill="#3F3D56"/>
<path d="M139.564 339.727C141.56 339.727 143.178 338.11 143.178 336.115C143.178 334.12 141.56 332.502 139.564 332.502C137.567 332.502 135.949 334.12 135.949 336.115C135.949 338.11 137.567 339.727 139.564 339.727Z" fill="#3F3D56"/>
<path d="M154.545 324.471C153.651 324.601 152.749 324.696 151.847 324.754C152.689 324.019 153.47 323.217 154.182 322.356C153.679 320.839 152.943 319.409 152 318.118C151.104 318.621 150.114 318.933 149.091 319.034C148.196 319.165 147.295 319.259 146.393 319.325C147.578 318.358 148.684 316.904 149.847 315.69C147.158 313.253 143.691 311.849 140.063 311.726C136.435 311.603 132.881 312.771 130.033 315.021C127.185 317.27 125.228 320.457 124.51 324.013C123.791 327.569 124.358 331.265 126.11 334.442C127.861 337.62 130.684 340.074 134.075 341.368C137.467 342.662 141.207 342.711 144.632 341.508C148.056 340.305 150.943 337.926 152.778 334.796C154.613 331.666 155.278 327.987 154.655 324.413L154.545 324.471Z" fill="#0EC4A9"/>
<path d="M166.625 342.416C165.703 342.982 164.663 343.328 163.585 343.427C162.691 343.558 161.789 343.659 160.887 343.718C161.846 342.858 162.74 341.93 163.564 340.941C161.384 340.373 159.071 340.638 157.077 341.684C155.083 342.73 153.551 344.481 152.78 346.596C152.009 348.711 152.056 351.037 152.91 353.12C153.764 355.202 155.365 356.892 157.399 357.858C159.433 358.823 161.755 358.996 163.91 358.342C166.065 357.688 167.898 356.255 169.052 354.322C170.205 352.388 170.596 350.095 170.147 347.889C169.698 345.683 168.443 343.724 166.625 342.395V342.416Z" fill="#0EC4A9"/>
<path d="M134.145 359.592C136.142 359.592 137.76 357.974 137.76 355.979C137.76 353.984 136.142 352.367 134.145 352.367C132.149 352.367 130.531 353.984 130.531 355.979C130.531 357.974 132.149 359.592 134.145 359.592Z" fill="#3F3D56"/>
<path d="M130.531 357.789C132.527 357.789 134.145 356.172 134.145 354.177C134.145 352.182 132.527 350.564 130.531 350.564C128.535 350.564 126.916 352.182 126.916 354.177C126.916 356.172 128.535 357.789 130.531 357.789Z" fill="#3F3D56"/>
<path d="M126.916 355.979C128.913 355.979 130.531 354.362 130.531 352.367C130.531 350.372 128.913 348.755 126.916 348.755C124.92 348.755 123.302 350.372 123.302 352.367C123.302 354.362 124.92 355.979 126.916 355.979Z" fill="#3F3D56"/>
<path d="M112.509 342.416C113.431 342.983 114.471 343.329 115.549 343.427C116.444 343.558 117.345 343.659 118.247 343.718C117.287 342.86 116.392 341.932 115.571 340.941C117.75 340.373 120.063 340.638 122.057 341.684C124.051 342.73 125.584 344.481 126.354 346.596C127.125 348.711 127.079 351.037 126.225 353.12C125.371 355.202 123.77 356.892 121.736 357.858C119.701 358.823 117.38 358.996 115.225 358.342C113.07 357.688 111.236 356.255 110.083 354.322C108.929 352.388 108.539 350.095 108.988 347.889C109.436 345.683 110.692 343.724 112.509 342.395V342.416Z" fill="#0EC4A9"/>
<path d="M136.967 377.654H145.775C150.597 377.654 155.221 379.568 158.631 382.976C162.041 386.384 163.956 391.006 163.956 395.825V419.716C163.956 420.534 163.632 421.318 163.053 421.896C162.475 422.474 161.691 422.798 160.873 422.798H121.869C121.051 422.798 120.267 422.474 119.689 421.896C119.11 421.318 118.786 420.534 118.786 419.716V395.825C118.786 391.006 120.701 386.384 124.111 382.976C127.521 379.568 132.145 377.654 136.967 377.654Z" fill="#3F3D56"/>
<g opacity="0.1">
<path opacity="0.1" d="M154.822 325.459C154.456 325.85 154.067 326.219 153.658 326.564C154.073 326.564 154.48 326.499 154.895 326.455C154.909 326.121 154.858 325.786 154.822 325.459Z" fill="black"/>
<path opacity="0.1" d="M148.233 321.142C149.142 321.084 150.036 320.989 150.938 320.858C151.747 320.756 152.538 320.54 153.287 320.219C152.921 319.491 152.498 318.794 152.022 318.133C151.569 318.408 151.079 318.616 150.567 318.75C149.854 319.608 149.073 320.408 148.233 321.142Z" fill="black"/>
<path opacity="0.1" d="M126.015 328.897C126.009 326.141 126.747 323.435 128.152 321.064C129.556 318.692 131.574 316.743 133.994 315.422C136.413 314.1 139.145 313.455 141.9 313.555C144.656 313.655 147.333 314.496 149.651 315.988L149.884 315.741C148.371 314.396 146.607 313.364 144.693 312.703C142.78 312.042 140.754 311.767 138.734 311.892C136.713 312.017 134.737 312.541 132.919 313.433C131.102 314.324 129.479 315.567 128.145 317.088C126.81 318.61 125.79 320.38 125.142 322.297C124.495 324.215 124.234 326.241 124.374 328.26C124.514 330.278 125.053 332.249 125.958 334.059C126.864 335.868 128.119 337.481 129.651 338.804C127.299 336.039 126.01 332.526 126.015 328.897Z" fill="black"/>
</g>
<g opacity="0.1">
<path opacity="0.1" d="M160.887 345.52C161.789 345.462 162.691 345.367 163.585 345.237C164.663 345.135 165.704 344.787 166.625 344.219C167.647 344.971 168.498 345.929 169.124 347.031C169.751 348.133 170.138 349.354 170.262 350.615C170.297 350.299 170.314 349.981 170.313 349.663C170.32 348.251 169.994 346.858 169.362 345.595C168.731 344.333 167.81 343.236 166.676 342.395C165.754 342.96 164.714 343.306 163.636 343.405L162.909 343.5C162.288 344.224 161.612 344.9 160.887 345.52Z" fill="black"/>
<path opacity="0.1" d="M161.251 342.438C161.553 342.442 161.854 342.464 162.153 342.504C162.625 342.002 163.091 341.464 163.564 340.941C162.227 340.584 160.825 340.539 159.468 340.811C158.111 341.082 156.835 341.661 155.738 342.505C154.641 343.348 153.753 344.432 153.143 345.674C152.532 346.915 152.216 348.28 152.218 349.663C152.218 349.968 152.218 350.266 152.262 350.564C152.485 348.337 153.529 346.272 155.19 344.771C156.851 343.269 159.011 342.438 161.251 342.438Z" fill="black"/>
</g>
<g opacity="0.1">
<path opacity="0.1" d="M118.247 345.52C117.345 345.462 116.444 345.367 115.549 345.237C114.471 345.136 113.43 344.788 112.509 344.219C111.488 344.971 110.636 345.929 110.01 347.031C109.383 348.133 108.996 349.354 108.873 350.615C108.837 350.299 108.82 349.981 108.822 349.663C108.815 348.251 109.14 346.858 109.772 345.595C110.404 344.333 111.324 343.236 112.458 342.395C113.38 342.961 114.42 343.307 115.498 343.405L116.225 343.5C116.842 344.228 117.518 344.904 118.247 345.52Z" fill="black"/>
<path opacity="0.1" d="M117.884 342.438C117.579 342.442 117.276 342.464 116.974 342.504C116.509 342.002 116.044 341.464 115.571 340.941C116.908 340.584 118.309 340.539 119.666 340.811C121.023 341.082 122.3 341.661 123.397 342.505C124.493 343.348 125.381 344.432 125.992 345.674C126.602 346.915 126.918 348.28 126.916 349.663C126.916 349.968 126.916 350.266 126.873 350.564C126.649 348.337 125.605 346.272 123.944 344.771C122.283 343.269 120.123 342.438 117.884 342.438Z" fill="black"/>
</g>
</g>
<defs>
<clipPath id="clip0">
<rect width="832" height="463" fill="white"/>
</clipPath>
</defs>
</svg>
